<svg viewBox="0 0 800 800" preserveAspectRatio="xMidYMid meet" version="1.1" xmlns="http://www.w3.org/2000/svg" style="font: 10px sans-serif;"><g id="circle" transform="translate(400,400)"><circle r="285.7142857142857" style="fill: none;"></circle><g class="group"><title>http://datasus.gov.br/owl/Teste</title><path id="group0" d="M1.7494954273533616e-14,-285.7142857142857A285.7142857142857,285.7142857142857 0 1,1 -255.37669982125507,128.1225750975568L-233.92505703626964,117.36027878936203A261.7142857142857,261.7142857142857 0 1,0 1.6025378114556795e-14,-261.7142857142857Z" style="fill: rgb(31, 119, 180);"></path><text dy=".35em" transform="rotate(31.678532181311525)translate(287.7142857142857)">http://datasus.gov.br/owl/Teste</text></g><g class="group"><title>http://datasus.gov.br/owl/Resultado</title><path id="group1" d="M-260.29596217255494,117.80774651052599A285.7142857142857,285.7142857142857 0 0,1 -260.29596217255494,117.80774651052599L-238.43110135006035,107.9118958036418A261.7142857142857,261.7142857142857 0 0,0 -238.43110135006035,107.9118958036418Z" style="fill: rgb(174, 199, 232);"></path><text dy=".35em" transform="rotate(155.64889554314632)translate(287.7142857142857)rotate(180)" style="text-anchor: end;">http://datasus.gov.br/owl/Resultado</text></g><g class="group"><title>http://datasus.gov.br/owl/TipoTeste</title><path id="group2" d="M-264.7988065112225,107.30445066005721A285.7142857142857,285.7142857142857 0 0,1 -264.7988065112225,107.30445066005721L-242.5557067642798,98.29087680461241A261.7142857142857,261.7142857142857 0 0,0 -242.5557067642798,98.29087680461241Z" style="fill: rgb(255, 127, 14);"></path><text dy=".35em" transform="rotate(157.94072672366963)translate(287.7142857142857)rotate(180)" style="text-anchor: end;">http://datasus.gov.br/owl/TipoTeste</text></g><g class="group"><title>http://datasus.gov.br/owl/Paciente</title><path id="group3" d="M-268.8780292468714,96.62949057892766A285.7142857142857,285.7142857142857 0 0,1 -79.55427477512315,-274.41532469275234L-72.8717156940128,-251.36443741856115A261.7142857142857,261.7142857142857 0 0,0 -246.2922747901342,88.51261337029773Z" style="fill: rgb(255, 187, 120);"></path><text dy=".35em" transform="rotate(207.03271955444404)translate(287.7142857142857)rotate(180)" style="text-anchor: end;">http://datasus.gov.br/owl/Paciente</text></g><g class="group"><title>http://datasus.gov.br/owl/Condicao</title><path id="group4" d="M-68.5169537155676,-277.37714418236277A285.7142857142857,285.7142857142857 0 0,1 -68.5169537155676,-277.37714418236277L-62.76152960345991,-254.0774640710443A261.7142857142857,261.7142857142857 0 0,0 -62.76152960345991,-254.0774640710443Z" style="fill: rgb(44, 160, 44);"></path><text dy=".35em" transform="rotate(256.1247123852184)translate(287.7142857142857)rotate(180)" style="text-anchor: end;">http://datasus.gov.br/owl/Condicao</text></g><g class="group"><title>http://datasus.gov.br/owl/Municipio</title><path id="group5" d="M-57.37002014623771,-279.8952194119163A285.7142857142857,285.7142857142857 0 0,1 -56.76376447312354,-280.01879955471605L-51.99560825738116,-256.4972203921199A261.7142857142857,261.7142857142857 0 0,0 -52.550938453953734,-256.38402098131536Z" style="fill: rgb(152, 223, 138);"></path><text dy=".35em" transform="rotate(258.4785814441018)translate(287.7142857142857)rotate(180)" style="text-anchor: end;">http://datasus.gov.br/owl/Municipio</text></g><g class="group"><title>http://datasus.gov.br/owl/Bairro</title><path id="group6" d="M-45.52059416208999,-282.0647595293584A285.7142857142857,285.7142857142857 0 0,1 -45.51948760407087,-282.0649381073219L-41.69585064532892,-258.37148330630686A261.7142857142857,261.7142857142857 0 0,0 -41.696864252474434,-258.37131972889233Z" style="fill: rgb(214, 39, 40);"></path><text dy=".35em" transform="rotate(260.8325628904459)translate(287.7142857142857)rotate(180)" style="text-anchor: end;">http://datasus.gov.br/owl/Bairro</text></g><g class="group"><title>http://datasus.gov.br/owl/ProfissionalDaSaude</title><path id="group7" d="M-34.20348779683469,-283.6596102439617A285.7142857142857,285.7142857142857 0 0,1 -34.20348779683469,-283.6596102439617L-31.330394821900576,-259.83220298346896A261.7142857142857,261.7142857142857 0 0,0 -31.330394821900576,-259.83220298346896Z" style="fill: rgb(255, 152, 150);"></path><text dy=".35em" transform="rotate(263.12450645843)translate(287.7142857142857)rotate(180)" style="text-anchor: end;">http://datasus.gov.br/owl/ProfissionalDaSaude</text></g><g class="group"><title>http://datasus.gov.br/owl/AbastecimentoDeAgua</title><path id="group8" d="M-22.832769705478487,-284.8004875150341A285.7142857142857,285.7142857142857 0 0,1 -22.832769705478487,-284.8004875150341L-20.914817050218296,-260.8772465637712A261.7142857142857,261.7142857142857 0 0,0 -20.914817050218296,-260.8772465637712Z" style="fill: rgb(148, 103, 189);"></path><text dy=".35em" transform="rotate(265.41633763895334)translate(287.7142857142857)rotate(180)" style="text-anchor: end;">http://datasus.gov.br/owl/AbastecimentoDeAgua</text></g><g class="group"><title>http://datasus.gov.br/owl/Esgoto</title><path id="group9" d="M-11.425524053324615,-285.48574476027943A285.7142857142857,285.7142857142857 0 0,1 -11.425524053324615,-285.48574476027943L-10.465780032845348,-261.50494220041594A261.7142857142857,261.7142857142857 0 0,0 -10.465780032845348,-261.50494220041594Z" style="fill: rgb(197, 176, 213);"></path><text dy=".35em" transform="rotate(267.7081688194766)translate(287.7142857142857)rotate(180)" style="text-anchor: end;">http://datasus.gov.br/owl/Esgoto</text></g><path class="chord" d="M-41.696864252474434,-258.37131972889233A261.7142857142857,261.7142857142857 0 0,1 -41.69585064532892,-258.37148330630686Q 0,0 -51.99560825738116,-256.4972203921199Q 0,0 -41.696864252474434,-258.37131972889233Z" style="fill: rgb(152, 223, 138); fill-opacity: 0.67; stroke: rgb(0, 0, 0); stroke-width: 0.25px; cursor: pointer;"></path><path class="chord" d="M-52.365855641926764,-256.4218877354811A261.7142857142857,261.7142857142857 0 0,1 -52.18074554425154,-256.45962087896964Q 0,0 -20.914817050218296,-260.8772465637712Q 0,0 -52.365855641926764,-256.4218877354811Z" style="fill: rgb(148, 103, 189); fill-opacity: 0.67; stroke: rgb(0, 0, 0); stroke-width: 0.25px; cursor: pointer;"></path><path class="chord" d="M-52.18074554425154,-256.45962087896964A261.7142857142857,261.7142857142857 0 0,1 -51.99560825738116,-256.4972203921199Q 0,0 -10.465780032845348,-261.50494220041594Q 0,0 -52.18074554425154,-256.45962087896964Z" style="fill: rgb(197, 176, 213); fill-opacity: 0.67; stroke: rgb(0, 0, 0); stroke-width: 0.25px; cursor: pointer;"></path><path class="chord" d="M-52.550938453953734,-256.38402098131536A261.7142857142857,261.7142857142857 0 0,1 -52.365855641926764,-256.4218877354811Q 0,0 -52.550938453953734,-256.38402098131536Z" style="fill: rgb(152, 223, 138); fill-opacity: 0.67; stroke: rgb(0, 0, 0); stroke-width: 0.25px; cursor: pointer;"></path><path class="chord" d="M-261.48723124495115,-10.89932304265766A261.7142857142857,261.7142857142857 0 0,1 -245.54070268665507,-90.57665632536037Q 0,0 -233.92505703626964,117.36027878936203Q 0,0 -261.48723124495115,-10.89932304265766Z" style="fill: rgb(31, 119, 180); fill-opacity: 0.67; stroke: rgb(0, 0, 0); stroke-width: 0.25px; cursor: pointer;"></path><path class="chord" d="M-245.54070268665507,-90.57665632536037A261.7142857142857,261.7142857142857 0 0,1 -205.9243651379975,-161.52251604482717Q 0,0 -51.99560825738116,-256.4972203921199Q 0,0 -245.54070268665507,-90.57665632536037Z" style="fill: rgb(152, 223, 138); fill-opacity: 0.67; stroke: rgb(0, 0, 0); stroke-width: 0.25px; cursor: pointer;"></path><path class="chord" d="M-205.9243651379975,-161.52251604482717A261.7142857142857,261.7142857142857 0 0,1 -146.45718275609858,-216.89781226671127Q 0,0 -41.69585064532892,-258.37148330630686Q 0,0 -205.9243651379975,-161.52251604482717Z" style="fill: rgb(214, 39, 40); fill-opacity: 0.67; stroke: rgb(0, 0, 0); stroke-width: 0.25px; cursor: pointer;"></path><path class="chord" d="M-146.45718275609858,-216.89781226671127A261.7142857142857,261.7142857142857 0 0,1 -72.8717156940128,-251.36443741856115Q 0,0 -31.330394821900576,-259.83220298346896Q 0,0 -146.45718275609858,-216.89781226671127Z" style="fill: rgb(255, 152, 150); fill-opacity: 0.67; stroke: rgb(0, 0, 0); stroke-width: 0.25px; cursor: pointer;"></path><path class="chord" d="M-246.2922747901342,88.51261337029773A261.7142857142857,261.7142857142857 0 0,1 -261.48723124495115,-10.89932304265766Q 0,0 -62.76152960345991,-254.0774640710443Q 0,0 -246.2922747901342,88.51261337029773Z" style="fill: rgb(44, 160, 44); fill-opacity: 0.67; stroke: rgb(0, 0, 0); stroke-width: 0.25px; cursor: pointer;"></path><path class="chord" d="M1.6025378114556795e-14,-261.7142857142857A261.7142857142857,261.7142857142857 0 0,1 222.72093399759945,137.43999747590124Q 0,0 -238.43110135006035,107.9118958036418Q 0,0 1.6025378114556795e-14,-261.7142857142857Z" style="fill: rgb(174, 199, 232); fill-opacity: 0.67; stroke: rgb(0, 0, 0); stroke-width: 0.25px; cursor: pointer;"></path><path class="chord" d="M222.72093399759945,137.43999747590124A261.7142857142857,261.7142857142857 0 0,1 -233.92505703626964,117.36027878936203Q 0,0 -242.5557067642798,98.29087680461241Q 0,0 222.72093399759945,137.43999747590124Z" style="fill: rgb(255, 127, 14); fill-opacity: 0.67; stroke: rgb(0, 0, 0); stroke-width: 0.25px; cursor: pointer;"></path></g></svg>